<svg xmlns="http://www.w3.org/2000/svg" viewBox="0 0 960 460" role="img" aria-label="Landscape with steep angular debris A, low river margin B, a river-mouth deposit C, and wind-built sand ridges D."><defs><marker id="e2arrow" viewBox="0 0 10 10" refX="9" refY="5" markerWidth="6" markerHeight="6" orient="auto"><path d="M0 0L10 5L0 10" fill="#f2bc67"/></marker></defs><rect width="960" height="460" fill="#0c1a2b"/><path d="M40 345L160 120L250 340L640 340L740 365L920 380L920 420L40 420Z" fill="#b7976b"/><rect x="680" y="340" width="240" height="80" rx="3" fill="#286e91"/><path d="M185 220Q260 250 310 320T615 340" stroke="#62c8e0" stroke-width="12" fill="none"/><path d="M620 330L730 350L620 375Z" fill="#edc588"/><text x="660" y="400" text-anchor="middle" fill="#e7eef4" font-size="24" font-family="Arial,sans-serif">C</text><text x="150" y="175" text-anchor="middle" fill="#e7eef4" font-size="24" font-family="Arial,sans-serif">A</text><text x="445" y="310" text-anchor="middle" fill="#e7eef4" font-size="24" font-family="Arial,sans-serif">B</text><path d="M370 200Q420 160 440 200Q485 170 505 210L370 210Z" fill="#e2b977"/><text x="440" y="160" text-anchor="middle" fill="#e7eef4" font-size="24" font-family="Arial,sans-serif">D</text></svg>