<svg xmlns="http://www.w3.org/2000/svg" viewBox="0 0 960 460" role="img" aria-label="Continuous marine and coastal successions A and B, read upward through time, and an erosional boundary C. Assume no later overturning."><defs><marker id="e2arrow" viewBox="0 0 10 10" refX="9" refY="5" markerWidth="6" markerHeight="6" orient="auto"><path d="M0 0L10 5L0 10" fill="#f2bc67"/></marker></defs><rect width="960" height="460" fill="#0c1a2b"/><rect x="70" y="64" width="205" height="320" rx="3" fill="#182b40"/><text x="172" y="97" text-anchor="middle" fill="#e7eef4" font-size="21" font-family="Arial,sans-serif">A · time ↑</text><rect x="375" y="64" width="205" height="320" rx="3" fill="#182b40"/><text x="477" y="97" text-anchor="middle" fill="#e7eef4" font-size="21" font-family="Arial,sans-serif">B · time ↑</text><rect x="680" y="64" width="205" height="320" rx="3" fill="#182b40"/><text x="782" y="97" text-anchor="middle" fill="#e7eef4" font-size="21" font-family="Arial,sans-serif">C</text><rect x="90" y="155" width="165" height="70" rx="3" fill="#5d8398"/><text x="172" y="192" text-anchor="middle" fill="#e7eef4" font-size="19" font-family="Arial,sans-serif">marine mud</text><rect x="90" y="225" width="165" height="90" rx="3" fill="#b99870"/><text x="172" y="270" text-anchor="middle" fill="#e7eef4" font-size="19" font-family="Arial,sans-serif">coastal sand</text><rect x="395" y="155" width="165" height="70" rx="3" fill="#b99870"/><text x="477" y="192" text-anchor="middle" fill="#e7eef4" font-size="19" font-family="Arial,sans-serif">coastal sand</text><rect x="395" y="225" width="165" height="90" rx="3" fill="#5d8398"/><text x="477" y="270" text-anchor="middle" fill="#e7eef4" font-size="19" font-family="Arial,sans-serif">marine mud</text><rect x="700" y="250" width="165" height="25" rx="3" fill="#b89b72"/><rect x="700" y="278" width="165" height="25" rx="3" fill="#6d8797"/><rect x="700" y="306" width="165" height="25" rx="3" fill="#b89b72"/><path d="M700 250q20-30 40 0t40 0t40 0t40 0" stroke="#f2bc67" stroke-width="5" fill="none"/><text x="780" y="215" text-anchor="middle" fill="#e7eef4" font-size="18" font-family="Arial,sans-serif">erosion surface</text></svg>