<svg xmlns="http://www.w3.org/2000/svg" viewBox="0 0 960 460" role="img" aria-label="A and B show opposite vertical movement of the hanging wall on right-dipping planes. C is a map-view horizontal offset. D has a fracture without displacement."><defs><marker id="e2arrow" viewBox="0 0 10 10" refX="9" refY="5" markerWidth="6" markerHeight="6" orient="auto"><path d="M0 0L10 5L0 10" fill="#f2bc67"/></marker></defs><rect width="960" height="460" fill="#0c1a2b"/><rect x="30" y="64" width="205" height="320" rx="3" fill="#182b40"/><text x="132" y="97" text-anchor="middle" fill="#e7eef4" font-size="21" font-family="Arial,sans-serif">A</text><rect x="50" y="185" width="70" height="130" rx="3" fill="#b99870"/><rect x="150" y="225" width="65" height="130" rx="3" fill="#b99870"/><path d="M125 125L165 350" stroke="#e7e9e8" stroke-width="4" fill="none"/><path d="M50 245L115 245" stroke="#637d9d" stroke-width="10" fill="none"/><path d="M160 285L215 285" stroke="#637d9d" stroke-width="10" fill="none"/><path d="M193 178L193 217" stroke="#f2bc67" stroke-width="5" marker-end="url(#e2arrow)"/><text x="132" y="380" text-anchor="middle" fill="#e7eef4" font-size="17" font-family="Arial,sans-serif">plane dips right</text><rect x="265" y="64" width="205" height="320" rx="3" fill="#182b40"/><text x="367" y="97" text-anchor="middle" fill="#e7eef4" font-size="21" font-family="Arial,sans-serif">B</text><rect x="285" y="185" width="70" height="130" rx="3" fill="#b99870"/><rect x="385" y="145" width="65" height="130" rx="3" fill="#b99870"/><path d="M360 125L400 350" stroke="#e7e9e8" stroke-width="4" fill="none"/><path d="M285 245L350 245" stroke="#637d9d" stroke-width="10" fill="none"/><path d="M395 205L450 205" stroke="#637d9d" stroke-width="10" fill="none"/><path d="M428 303L428 258" stroke="#f2bc67" stroke-width="5" marker-end="url(#e2arrow)"/><text x="367" y="380" text-anchor="middle" fill="#e7eef4" font-size="17" font-family="Arial,sans-serif">plane dips right</text><rect x="500" y="64" width="205" height="320" rx="3" fill="#182b40"/><text x="602" y="97" text-anchor="middle" fill="#e7eef4" font-size="21" font-family="Arial,sans-serif">C</text><rect x="525" y="135" width="155" height="205" rx="3" fill="#b99870"/><path d="M600 140L600 340" stroke="#0d1723" stroke-width="7" fill="none"/><path d="M528 210L596 210" stroke="#627f97" stroke-width="12" fill="none"/><path d="M604 270L678 270" stroke="#627f97" stroke-width="12" fill="none"/><path d="M560 290L560 245" stroke="#f2bc67" stroke-width="5" marker-end="url(#e2arrow)"/><path d="M642 160L642 203" stroke="#f2bc67" stroke-width="5" marker-end="url(#e2arrow)"/><text x="603" y="382" text-anchor="middle" fill="#e7eef4" font-size="18" font-family="Arial,sans-serif">map view</text><rect x="735" y="64" width="205" height="320" rx="3" fill="#182b40"/><text x="837" y="97" text-anchor="middle" fill="#e7eef4" font-size="21" font-family="Arial,sans-serif">D</text><rect x="760" y="135" width="155" height="205" rx="3" fill="#b99870"/><path d="M837 140L837 340" stroke="#172436" stroke-width="5" fill="none"/><path d="M760 225L915 225" stroke="#617f99" stroke-width="12" fill="none"/><text x="837" y="382" text-anchor="middle" fill="#e7eef4" font-size="18" font-family="Arial,sans-serif">no offset</text></svg>